{"accessors":[{"name":"pCylinder2_1_positions","componentType":5126,"count":4225,"min":[-3.1257359981536865,4.5633649826049805,-3.12573504447937],"max":[3.125736951828003,11.026362419128418,3.12573504447937],"type":"VEC3","bufferView":0,"byteOffset":0},{"name":"pCylinder2_1_normals","componentType":5126,"count":4225,"min":[-0.9999989867210388,-0.0641539990901947,-0.9999989867210388],"max":[0.9999989867210388,0.6370760202407837,0.9999989867210388],"type":"VEC3","bufferView":0,"byteOffset":50700},{"name":"pCylinder2_1_texcoords","componentType":5126,"count":4225,"min":[0.042155999690294266,0.2035199999809265],"max":[0.9579070210456848,0.6613950133323669],"type":"VEC2","bufferView":1,"byteOffset":0},{"name":"pCylinder2_1_0_indices","componentType":5123,"count":24576,"min":[0],"max":[4224],"type":"SCALAR","bufferView":2,"byteOffset":0}],"asset":{"generator":"obj2gltf","version":"2.0"},"buffers":[{"name":"input","byteLength":184352,"uri":"data:application/octet-stream;base64,"}],"bufferViews":[{"name":"bufferView_0","buffer":0,"byteLength":101400,"byteOffset":0,"byteStride":12,"target":34962},{"name":"bufferView_1","buffer":0,"byteLength":33800,"byteOffset":101400,"byteStride":8,"target":34962},{"name":"bufferView_2","buffer":0,"byteLength":49152,"byteOffset":135200,"target":34963}],"materials":[{"name":"initialShadingGroup","pbrMetallicRoughness":{"baseColorFactor":[0.5,0.5,0.5,1],"metallicFactor":0,"roughnessFactor":1},"emissiveFactor":[0,0,0],"alphaMode":"OPAQUE","doubleSided":false}],"meshes":[{"name":"pCylinder2_1","primitives":[{"attributes":{"POSITION":0,"NORMAL":1,"TEXCOORD_0":2},"indices":3,"material":0,"mode":4}]}],"nodes":[{"name":"pCylinder2","mesh":0}],"scene":0,"scenes":[{"nodes":[0]}]}
