{
  "accessors": [
    {
      "bufferView": 0,
      "byteOffset": 0,
      "componentType": 5123,
      "count": 192,
      "max": [
        127.0
      ],
      "min": [
        0.0
      ],
      "name": "buffer-0-group-0-mesh-0-indices",
      "type": "SCALAR"
    },
    {
      "bufferView": 2,
      "byteOffset": 0,
      "componentType": 5126,
      "count": 128,
      "max": [
        1.74070405960083,
        8.1874361038208,
        0.0
      ],
      "min": [
        -1.74070405960083,
        0.0,
        -0.1900389939546585
      ],
      "name": "buffer-0-group-0-mesh-0-position",
      "type": "VEC3"
    },
    {
      "bufferView": 2,
      "byteOffset": 1536,
      "componentType": 5126,
      "count": 128,
      "max": [
        0.1354999989271164,
        0.03240000084042549,
        1.0
      ],
      "min": [
        -0.1354999989271164,
        -0.004900000058114529,
        0.0
      ],
      "name": "buffer-0-group-0-mesh-0-normal",
      "type": "VEC3"
    },
    {
      "bufferView": 0,
      "byteOffset": 384,
      "componentType": 5123,
      "count": 762,
      "max": [
        389.0
      ],
      "min": [
        0.0
      ],
      "name": "buffer-0-group-1-mesh-0-indices",
      "type": "SCALAR"
    },
    {
      "bufferView": 2,
      "byteOffset": 3072,
      "componentType": 5126,
      "count": 390,
      "max": [
        2.3966779708862305,
        9.893942832946777,
        0.01875000074505806
      ],
      "min": [
        -2.3966779708862305,
        -0.20879699289798737,
        -0.22861599922180176
      ],
      "name": "buffer-0-group-1-mesh-0-position",
      "type": "VEC3"
    },
    {
      "bufferView": 2,
      "byteOffset": 7752,
      "componentType": 5126,
      "count": 390,
      "max": [
        0.6735000014305115,
        0.6707000136375427,
        1.0
      ],
      "min": [
        -0.6735000014305115,
        -0.5529000163078308,
        -0.9936000108718872
      ],
      "name": "buffer-0-group-1-mesh-0-normal",
      "type": "VEC3"
    },
    {
      "bufferView": 0,
      "byteOffset": 1908,
      "componentType": 5123,
      "count": 192,
      "max": [
        111.0
      ],
      "min": [
        0.0
      ],
      "name": "buffer-0-group-2-mesh-0-indices",
      "type": "SCALAR"
    },
    {
      "bufferView": 2,
      "byteOffset": 12432,
      "componentType": 5126,
      "count": 112,
      "max": [
        2.315906047821045,
        7.516516208648682,
        0.0
      ],
      "min": [
        -2.315906047821045,
        -0.20879699289798737,
        -0.22861599922180176
      ],
      "name": "buffer-0-group-2-mesh-0-position",
      "type": "VEC3"
    },
    {
      "bufferView": 2,
      "byteOffset": 13776,
      "componentType": 5126,
      "count": 112,
      "max": [
        0.17489999532699585,
        0.012000000104308128,
        1.0
      ],
      "min": [
        -0.17489999532699585,
        -0.052000001072883606,
        -0.9976999759674072
      ],
      "name": "buffer-0-group-2-mesh-0-normal",
      "type": "VEC3"
    },
    {
      "bufferView": 0,
      "byteOffset": 2292,
      "componentType": 5123,
      "count": 72,
      "max": [
        39.0
      ],
      "min": [
        0.0
      ],
      "name": "buffer-0-group-3-mesh-0-indices",
      "type": "SCALAR"
    },
    {
      "bufferView": 2,
      "byteOffset": 15120,
      "componentType": 5126,
      "count": 40,
      "max": [
        2.234502077102661,
        6.609783172607422,
        0.0
      ],
      "min": [
        -2.234502077102661,
        -0.021632999181747437,
        -0.2098509967327118
      ],
      "name": "buffer-0-group-3-mesh-0-position",
      "type": "VEC3"
    },
    {
      "bufferView": 2,
      "byteOffset": 15600,
      "componentType": 5126,
      "count": 40,
      "max": [
        0.15369999408721924,
        0.02969999983906746,
        1.0
      ],
      "min": [
        -0.15369999408721924,
        0.0,
        -0.9876999855041504
      ],
      "name": "buffer-0-group-3-mesh-0-normal",
      "type": "VEC3"
    },
    {
      "bufferView": 0,
      "byteOffset": 2436,
      "componentType": 5123,
      "count": 288,
      "max": [
        135.0
      ],
      "min": [
        0.0
      ],
      "name": "buffer-0-group-4-mesh-0-indices",
      "type": "SCALAR"
    },
    {
      "bufferView": 2,
      "byteOffset": 16080,
      "componentType": 5126,
      "count": 136,
      "max": [
        1.74070405960083,
        9.861397743225098,
        0.0
      ],
      "min": [
        -1.74070405960083,
        0.0,
        -0.1900389939546585
      ],
      "name": "buffer-0-group-4-mesh-0-position",
      "type": "VEC3"
    },
    {
      "bufferView": 2,
      "byteOffset": 17712,
      "componentType": 5126,
      "count": 136,
      "max": [
        0.12139999866485596,
        0.026000000536441803,
        1.0
      ],
      "min": [
        -0.12139999866485596,
        -0.13220000267028809,
        -0.9970999956130981
      ],
      "name": "buffer-0-group-4-mesh-0-normal",
      "type": "VEC3"
    },
    {
      "bufferView": 0,
      "byteOffset": 3012,
      "componentType": 5123,
      "count": 192,
      "max": [
        99.0
      ],
      "min": [
        0.0
      ],
      "name": "buffer-0-group-5-mesh-0-indices",
      "type": "SCALAR"
    },
    {
      "bufferView": 2,
      "byteOffset": 19344,
      "componentType": 5126,
      "count": 100,
      "max": [
        1.5481640100479126,
        9.861397743225098,
        0.0
      ],
      "min": [
        -1.5481640100479126,
        0.0,
        -0.18960900604724884
      ],
      "name": "buffer-0-group-5-mesh-0-position",
      "type": "VEC3"
    },
    {
      "bufferView": 2,
      "byteOffset": 20544,
      "componentType": 5126,
      "count": 100,
      "max": [
        0.17659999430179596,
        0.0,
        0.0
      ],
      "min": [
        -0.17659999430179596,
        -0.11420000344514847,
        -1.0
      ],
      "name": "buffer-0-group-5-mesh-0-normal",
      "type": "VEC3"
    },
    {
      "bufferView": 0,
      "byteOffset": 3396,
      "componentType": 5123,
      "count": 66,
      "max": [
        65.0
      ],
      "min": [
        0.0
      ],
      "name": "buffer-0-group-6-mesh-0-indices",
      "type": "SCALAR"
    },
    {
      "bufferView": 2,
      "byteOffset": 21744,
      "componentType": 5126,
      "count": 66,
      "max": [
        1.523516058921814,
        9.04172420501709,
        0.05184999853372574
      ],
      "min": [
        -1.523516058921814,
        0.0,
        -0.13215899467468262
      ],
      "name": "buffer-0-group-6-mesh-0-position",
      "type": "VEC3"
    },
    {
      "bufferView": 2,
      "byteOffset": 22536,
      "componentType": 5126,
      "count": 66,
      "max": [
        0.3237999975681305,
        0.3977999985218048,
        0.968999981880188
      ],
      "min": [
        -0.3237999975681305,
        -0.3407999873161316,
        -0.9588000178337097
      ],
      "name": "buffer-0-group-6-mesh-0-normal",
      "type": "VEC3"
    },
    {
      "bufferView": 0,
      "byteOffset": 3528,
      "componentType": 5123,
      "count": 24,
      "max": [
        11.0
      ],
      "min": [
        0.0
      ],
      "name": "buffer-0-group-7-mesh-0-indices",
      "type": "SCALAR"
    },
    {
      "bufferView": 2,
      "byteOffset": 23328,
      "componentType": 5126,
      "count": 12,
      "max": [
        1.3484410047531128,
        10.036725044250488,
        0.0
      ],
      "min": [
        -1.3484410047531128,
        0.0,
        -0.1900389939546585
      ],
      "name": "buffer-0-group-7-mesh-0-position",
      "type": "VEC3"
    },
    {
      "bufferView": 2,
      "byteOffset": 23472,
      "componentType": 5126,
      "count": 12,
      "max": [
        0.09570000320672989,
        0.0,
        0.9954000115394592
      ],
      "min": [
        -0.09570000320672989,
        -0.004100000020116568,
        0.0
      ],
      "name": "buffer-0-group-7-mesh-0-normal",
      "type": "VEC3"
    },
    {
      "bufferView": 0,
      "byteOffset": 3576,
      "componentType": 5123,
      "count": 30,
      "max": [
        13.0
      ],
      "min": [
        0.0
      ],
      "name": "buffer-0-group-8-mesh-0-indices",
      "type": "SCALAR"
    },
    {
      "bufferView": 2,
      "byteOffset": 23616,
      "componentType": 5126,
      "count": 14,
      "max": [
        1.3484410047531128,
        9.893942832946777,
        0.0
      ],
      "min": [
        -1.3484410047531128,
        0.0,
        -0.1900389939546585
      ],
      "name": "buffer-0-group-8-mesh-0-position",
      "type": "VEC3"
    },
    {
      "bufferView": 2,
      "byteOffset": 23784,
      "componentType": 5126,
      "count": 14,
      "max": [
        0.10490000247955322,
        0.066600002348423,
        0.9922999739646912
      ],
      "min": [
        -0.10490000247955322,
        0.0,
        0.0
      ],
      "name": "buffer-0-group-8-mesh-0-normal",
      "type": "VEC3"
    }
  ],
  "asset": {
    "generator": "Obj2GltfConverter",
    "version": "2.0"
  },
  "bufferViews": [
    {
      "buffer": 0,
      "byteLength": 3636,
      "byteOffset": 0,
      "byteStride": 0,
      "name": "buffer-0-bufferview-ushort",
      "target": 34963
    },
    {
      "buffer": 0,
      "byteLength": 0,
      "byteOffset": 3636,
      "byteStride": 0,
      "name": "buffer-0-bufferview-vec2",
      "target": 34962
    },
    {
      "buffer": 0,
      "byteLength": 23952,
      "byteOffset": 3636,
      "byteStride": 12,
      "name": "buffer-0-bufferview-vec3",
      "target": 34962
    },
    {
      "buffer": 0,
      "byteLength": 0,
      "byteOffset": 27588,
      "byteStride": 0,
      "name": "buffer-0-bufferview-vec4",
      "target": 34962
    }
  ],
  "buffers": [
    {
      "byteLength": 27588,
      "name": "buffer-0",
      "uri": "compcape.bin"
    }
  ],
  "materials": [
    {
      "alphaMode": "OPAQUE",
      "doubleSided": true,
      "name": "Material",
      "pbrMetallicRoughness": {
        "baseColorFactor": [
          0.8,
          0.609333,
          0.208496,
          1.0
        ],
        "metallicFactor": 0.0,
        "roughnessFactor": 0.7448017359246658
      }
    },
    {
      "alphaMode": "OPAQUE",
      "doubleSided": true,
      "name": "trim",
      "pbrMetallicRoughness": {
        "baseColorFactor": [
          0.8,
          0.724219,
          0.301964,
          1.0
        ],
        "metallicFactor": 0.0,
        "roughnessFactor": 0.7448017359246658
      }
    },
    {
      "alphaMode": "OPAQUE",
      "doubleSided": true,
      "name": "Material.001",
      "pbrMetallicRoughness": {
        "baseColorFactor": [
          0.095421,
          0.009078,
          0.015171,
          1.0
        ],
        "metallicFactor": 0.0,
        "roughnessFactor": 0.7448017359246658
      }
    },
    {
      "alphaMode": "OPAQUE",
      "doubleSided": true,
      "name": "Material.002",
      "pbrMetallicRoughness": {
        "baseColorFactor": [
          0.242558,
          0.019618,
          0.02839,
          1.0
        ],
        "metallicFactor": 0.0,
        "roughnessFactor": 0.5289614006210164
      }
    },
    {
      "alphaMode": "OPAQUE",
      "doubleSided": true,
      "name": "Material.003",
      "pbrMetallicRoughness": {
        "baseColorFactor": [
          0.465171,
          0.048317,
          0.051939,
          1.0
        ],
        "metallicFactor": 0.0,
        "roughnessFactor": 0.7448017359246658
      }
    },
    {
      "alphaMode": "OPAQUE",
      "doubleSided": true,
      "name": "Material.004",
      "pbrMetallicRoughness": {
        "baseColorFactor": [
          0.8,
          0.082797,
          0.124888,
          1.0
        ],
        "metallicFactor": 0.0,
        "roughnessFactor": 0.7448017359246658
      }
    },
    {
      "alphaMode": "OPAQUE",
      "doubleSided": true,
      "name": "Material.005",
      "pbrMetallicRoughness": {
        "baseColorFactor": [
          0.8,
          0.009379,
          0.0,
          1.0
        ],
        "metallicFactor": 0.0,
        "roughnessFactor": 0.7448017359246658
      }
    },
    {
      "alphaMode": "OPAQUE",
      "doubleSided": true,
      "name": "Material.006",
      "pbrMetallicRoughness": {
        "baseColorFactor": [
          0.64,
          0.361572,
          0.118,
          1.0
        ],
        "metallicFactor": 0.0,
        "roughnessFactor": 0.7448017359246658
      }
    },
    {
      "alphaMode": "OPAQUE",
      "doubleSided": true,
      "name": "Material.007",
      "pbrMetallicRoughness": {
        "baseColorFactor": [
          0.33602,
          0.124874,
          0.04464,
          1.0
        ],
        "metallicFactor": 0.0,
        "roughnessFactor": 0.7448017359246658
      }
    }
  ],
  "meshes": [
    {
      "name": "buffer-0-mesh-0",
      "primitives": [
        {
          "attributes": {
            "POSITION": 1,
            "NORMAL": 2
          },
          "indices": 0,
          "material": 0,
          "mode": 4
        },
        {
          "attributes": {
            "POSITION": 4,
            "NORMAL": 5
          },
          "indices": 3,
          "material": 1,
          "mode": 4
        },
        {
          "attributes": {
            "POSITION": 7,
            "NORMAL": 8
          },
          "indices": 6,
          "material": 2,
          "mode": 4
        },
        {
          "attributes": {
            "POSITION": 10,
            "NORMAL": 11
          },
          "indices": 9,
          "material": 3,
          "mode": 4
        },
        {
          "attributes": {
            "POSITION": 13,
            "NORMAL": 14
          },
          "indices": 12,
          "material": 4,
          "mode": 4
        },
        {
          "attributes": {
            "POSITION": 16,
            "NORMAL": 17
          },
          "indices": 15,
          "material": 5,
          "mode": 4
        },
        {
          "attributes": {
            "POSITION": 19,
            "NORMAL": 20
          },
          "indices": 18,
          "material": 6,
          "mode": 4
        },
        {
          "attributes": {
            "POSITION": 22,
            "NORMAL": 23
          },
          "indices": 21,
          "material": 7,
          "mode": 4
        },
        {
          "attributes": {
            "POSITION": 25,
            "NORMAL": 26
          },
          "indices": 24,
          "material": 8,
          "mode": 4
        }
      ]
    }
  ],
  "nodes": [
    {
      "mesh": 0,
      "name": "node-0"
    }
  ],
  "scenes": [
    {
      "name": "scene-0",
      "nodes": [
        0
      ]
    }
  ]
}