{"accessors":[{"name":"pCylinder1_1_positions","componentType":5126,"count":4225,"min":[-3.170762062072754,4.452486991882324,-3.170762062072754],"max":[3.1707630157470703,10.794012069702148,3.170762062072754],"type":"VEC3","bufferView":0,"byteOffset":0},{"name":"pCylinder1_1_normals","componentType":5126,"count":4225,"min":[-1,0,-1],"max":[1,0,1],"type":"VEC3","bufferView":0,"byteOffset":50700},{"name":"pCylinder1_1_texcoords","componentType":5126,"count":4225,"min":[0.375,0.3115609884262085],"max":[0.625,0.6875],"type":"VEC2","bufferView":1,"byteOffset":0},{"name":"pCylinder1_1_0_indices","componentType":5123,"count":24576,"min":[0],"max":[4224],"type":"SCALAR","bufferView":2,"byteOffset":0}],"asset":{"generator":"obj2gltf","version":"2.0"},"buffers":[{"name":"input","byteLength":184352,"uri":"data:application/octet-stream;base64,"}],"bufferViews":[{"name":"bufferView_0","buffer":0,"byteLength":101400,"byteOffset":0,"byteStride":12,"target":34962},{"name":"bufferView_1","buffer":0,"byteLength":33800,"byteOffset":101400,"byteStride":8,"target":34962},{"name":"bufferView_2","buffer":0,"byteLength":49152,"byteOffset":135200,"target":34963}],"materials":[{"name":"initialShadingGroup","pbrMetallicRoughness":{"baseColorFactor":[0.5,0.5,0.5,1],"metallicFactor":0,"roughnessFactor":1},"emissiveFactor":[0,0,0],"alphaMode":"OPAQUE","doubleSided":false}],"meshes":[{"name":"pCylinder1_1","primitives":[{"attributes":{"POSITION":0,"NORMAL":1,"TEXCOORD_0":2},"indices":3,"material":0,"mode":4}]}],"nodes":[{"name":"pCylinder1","mesh":0}],"scene":0,"scenes":[{"nodes":[0]}]}
